<?xml version="1.0" encoding="utf-8"?><svg xmlns="http://www.w3.org/2000/svg" viewBox="0 0 480 105"><style type="text/css">.c0{fill:#39B54A}.c1{fill:#282828}</style><path class="c0" d="M0 2h13v25c5-4 10-7 15-7 10 1 18 7 18 20v34H33V49c0-10-1-17-9-17-3 0-6 2-8 5-3 5-3 9-3 15v22H0V2zM72 9c0 5-3 8-8 8s-8-4-8-9c0-4 3-8 8-8 5 1 8 4 8 9zM57 22h13v52H57V22zM90 29c3-6 7-8 11-8l6 1-4 11-4-1c-3 0-6 4-7 12v30H79V22h12v7zM162 64c-6 8-13 11-24 11-17 0-28-12-28-27 0-14 11-27 27-27 17 0 28 11 28 28v3h-42c1 7 7 12 15 12 5 0 9-2 12-5l12 5zm-10-23c-2-6-7-9-14-9s-12 3-14 9h28z"/><path class="c1" d="M228 48c0 15-12 27-28 27-15 0-27-12-27-27 0-16 13-27 27-27 15 0 28 12 28 27zm-42 0c0 9 6 15 14 15s14-6 14-15-5-15-14-15c-8 0-14 6-14 15zM251 27c5-4 10-7 16-7 9 1 17 7 17 18v36h-13V49c0-10-1-17-8-17-4 0-7 2-9 5-3 5-3 9-3 15v22h-13V22h13v5zM296 2h13v72h-13V2zM334 9c0 5-4 8-8 8-5 0-9-4-9-9 0-4 4-8 9-8 4 1 8 4 8 9zm-15 13h13v52h-13V22zM357 27c5-4 10-7 15-7 10 1 18 7 18 18v36h-13V49c0-10-1-17-9-17-3 0-6 2-8 5-3 5-3 9-3 15v22h-13V22h13v5zM452 64c-6 8-13 11-24 11-17 0-28-12-28-27 0-14 11-27 27-27 17 0 28 11 28 28v3h-42c1 7 7 12 15 12 5 0 9-2 13-5l11 5zm-10-23c-2-6-7-9-14-9s-12 3-14 9h28z"/><path class="c0" d="M480 68c0 4-3 7-7 7s-8-3-8-7 4-8 8-8 7 4 7 8z"/><path class="c1" d="M174 100h305v5H174z"/></svg>